<svg width="16" height="33" viewBox="0 0 16 33" fill="none" xmlns="http://www.w3.org/2000/svg">
<path d="M7.5 26.25C6.4 26.25 5.45 26.0417 4.65 25.625C3.86667 25.2083 3.25833 24.6083 2.825 23.825C2.40833 23.025 2.2 22.0833 2.2 21V12.75C2.2 11.65 2.40833 10.7083 2.825 9.925C3.25833 9.14167 3.86667 8.54167 4.65 8.125C5.45 7.70833 6.4 7.5 7.5 7.5C8.6 7.5 9.54167 7.70833 10.325 8.125C11.125 8.54167 11.7333 9.14167 12.15 9.925C12.5833 10.7083 12.8 11.6417 12.8 12.725V21C12.8 22.0833 12.5833 23.025 12.15 23.825C11.7333 24.6083 11.125 25.2083 10.325 25.625C9.54167 26.0417 8.6 26.25 7.5 26.25ZM7.5 24.225C8.48333 24.225 9.23333 23.95 9.75 23.4C10.2833 22.8333 10.55 22.0333 10.55 21V12.75C10.55 11.7167 10.2833 10.925 9.75 10.375C9.23333 9.80833 8.48333 9.525 7.5 9.525C6.53333 9.525 5.78333 9.80833 5.25 10.375C4.71667 10.925 4.45 11.7167 4.45 12.75V21C4.45 22.0333 4.71667 22.8333 5.25 23.4C5.78333 23.95 6.53333 24.225 7.5 24.225Z" fill="#1A2E6D"/>
<path d="M9.5 28.1357C8.4 28.1357 7.45 27.9274 6.65 27.5107C5.86667 27.0941 5.25833 26.4941 4.825 25.7107C4.40833 24.9107 4.2 23.9691 4.2 22.8857V14.6357C4.2 13.5357 4.40833 12.5941 4.825 11.8107C5.25833 11.0274 5.86667 10.4274 6.65 10.0107C7.45 9.59408 8.4 9.38574 9.5 9.38574C10.6 9.38574 11.5417 9.59408 12.325 10.0107C13.125 10.4274 13.7333 11.0274 14.15 11.8107C14.5833 12.5941 14.8 13.5274 14.8 14.6107V22.8857C14.8 23.9691 14.5833 24.9107 14.15 25.7107C13.7333 26.4941 13.125 27.0941 12.325 27.5107C11.5417 27.9274 10.6 28.1357 9.5 28.1357ZM9.5 26.1107C10.4833 26.1107 11.2333 25.8357 11.75 25.2857C12.2833 24.7191 12.55 23.9191 12.55 22.8857V14.6357C12.55 13.6024 12.2833 12.8107 11.75 12.2607C11.2333 11.6941 10.4833 11.4107 9.5 11.4107C8.53333 11.4107 7.78333 11.6941 7.25 12.2607C6.71667 12.8107 6.45 13.6024 6.45 14.6357V22.8857C6.45 23.9191 6.71667 24.7191 7.25 25.2857C7.78333 25.8357 8.53333 26.1107 9.5 26.1107Z" fill="#1A2E6D"/>
</svg>
