<svg width="76" height="35" viewBox="0 0 76 35" fill="none" xmlns="http://www.w3.org/2000/svg">
<path d="M22.375 26V9.775H17.375V7.725H29.625V9.775H24.625V26H22.375ZM38.4902 26.25C37.3902 26.25 36.4402 26.0417 35.6402 25.625C34.8569 25.2083 34.2486 24.6083 33.8152 23.825C33.3986 23.025 33.1902 22.0833 33.1902 21V12.75C33.1902 11.65 33.3986 10.7083 33.8152 9.925C34.2486 9.14167 34.8569 8.54167 35.6402 8.125C36.4402 7.70833 37.3902 7.5 38.4902 7.5C39.5902 7.5 40.5319 7.70833 41.3152 8.125C42.1152 8.54167 42.7236 9.14167 43.1402 9.925C43.5736 10.7083 43.7902 11.6417 43.7902 12.725V21C43.7902 22.0833 43.5736 23.025 43.1402 23.825C42.7236 24.6083 42.1152 25.2083 41.3152 25.625C40.5319 26.0417 39.5902 26.25 38.4902 26.25ZM38.4902 24.225C39.4736 24.225 40.2236 23.95 40.7402 23.4C41.2736 22.8333 41.5402 22.0333 41.5402 21V12.75C41.5402 11.7167 41.2736 10.925 40.7402 10.375C40.2236 9.80833 39.4736 9.525 38.4902 9.525C37.5236 9.525 36.7736 9.80833 36.2402 10.375C35.7069 10.925 35.4402 11.7167 35.4402 12.75V21C35.4402 22.0333 35.7069 22.8333 36.2402 23.4C36.7736 23.95 37.5236 24.225 38.4902 24.225ZM48.2805 26V7.75H53.0055C54.1888 7.75 55.2055 7.975 56.0555 8.425C56.9221 8.875 57.5888 9.50833 58.0555 10.325C58.5388 11.1417 58.7805 12.1083 58.7805 13.225V20.5C58.7805 21.6167 58.5388 22.5917 58.0555 23.425C57.5888 24.2417 56.9221 24.875 56.0555 25.325C55.2055 25.775 54.1888 26 53.0055 26H48.2805ZM50.5305 24H53.0055C54.1055 24 54.9638 23.6917 55.5805 23.075C56.2138 22.4583 56.5305 21.6 56.5305 20.5V13.225C56.5305 12.1417 56.2138 11.2917 55.5805 10.675C54.9638 10.0583 54.1055 9.75 53.0055 9.75H50.5305V24ZM68.4707 26.25C67.3707 26.25 66.4207 26.0417 65.6207 25.625C64.8374 25.2083 64.229 24.6083 63.7957 23.825C63.379 23.025 63.1707 22.0833 63.1707 21V12.75C63.1707 11.65 63.379 10.7083 63.7957 9.925C64.229 9.14167 64.8374 8.54167 65.6207 8.125C66.4207 7.70833 67.3707 7.5 68.4707 7.5C69.5707 7.5 70.5124 7.70833 71.2957 8.125C72.0957 8.54167 72.704 9.14167 73.1207 9.925C73.554 10.7083 73.7707 11.6417 73.7707 12.725V21C73.7707 22.0833 73.554 23.025 73.1207 23.825C72.704 24.6083 72.0957 25.2083 71.2957 25.625C70.5124 26.0417 69.5707 26.25 68.4707 26.25ZM68.4707 24.225C69.454 24.225 70.204 23.95 70.7207 23.4C71.254 22.8333 71.5207 22.0333 71.5207 21V12.75C71.5207 11.7167 71.254 10.925 70.7207 10.375C70.204 9.80833 69.454 9.525 68.4707 9.525C67.504 9.525 66.754 9.80833 66.2207 10.375C65.6874 10.925 65.4207 11.7167 65.4207 12.75V21C65.4207 22.0333 65.6874 22.8333 66.2207 23.4C66.754 23.95 67.504 24.225 68.4707 24.225Z" fill="#1A2E6D"/>
<path d="M7.5 26.25C6.4 26.25 5.45 26.0417 4.65 25.625C3.86667 25.2083 3.25833 24.6083 2.825 23.825C2.40833 23.025 2.2 22.0833 2.2 21V12.75C2.2 11.65 2.40833 10.7083 2.825 9.925C3.25833 9.14167 3.86667 8.54167 4.65 8.125C5.45 7.70833 6.4 7.5 7.5 7.5C8.6 7.5 9.54167 7.70833 10.325 8.125C11.125 8.54167 11.7333 9.14167 12.15 9.925C12.5833 10.7083 12.8 11.6417 12.8 12.725V21C12.8 22.0833 12.5833 23.025 12.15 23.825C11.7333 24.6083 11.125 25.2083 10.325 25.625C9.54167 26.0417 8.6 26.25 7.5 26.25ZM7.5 24.225C8.48333 24.225 9.23333 23.95 9.75 23.4C10.2833 22.8333 10.55 22.0333 10.55 21V12.75C10.55 11.7167 10.2833 10.925 9.75 10.375C9.23333 9.80833 8.48333 9.525 7.5 9.525C6.53333 9.525 5.78333 9.80833 5.25 10.375C4.71667 10.925 4.45 11.7167 4.45 12.75V21C4.45 22.0333 4.71667 22.8333 5.25 23.4C5.78333 23.95 6.53333 24.225 7.5 24.225Z" fill="#1A2E6D"/>
<path d="M9.5 28.25C8.4 28.25 7.45 28.0417 6.65 27.625C5.86667 27.2083 5.25833 26.6083 4.825 25.825C4.40833 25.025 4.2 24.0833 4.2 23V14.75C4.2 13.65 4.40833 12.7083 4.825 11.925C5.25833 11.1417 5.86667 10.5417 6.65 10.125C7.45 9.70833 8.4 9.5 9.5 9.5C10.6 9.5 11.5417 9.70833 12.325 10.125C13.125 10.5417 13.7333 11.1417 14.15 11.925C14.5833 12.7083 14.8 13.6417 14.8 14.725V23C14.8 24.0833 14.5833 25.025 14.15 25.825C13.7333 26.6083 13.125 27.2083 12.325 27.625C11.5417 28.0417 10.6 28.25 9.5 28.25ZM9.5 26.225C10.4833 26.225 11.2333 25.95 11.75 25.4C12.2833 24.8333 12.55 24.0333 12.55 23V14.75C12.55 13.7167 12.2833 12.925 11.75 12.375C11.2333 11.8083 10.4833 11.525 9.5 11.525C8.53333 11.525 7.78333 11.8083 7.25 12.375C6.71667 12.925 6.45 13.7167 6.45 14.75V23C6.45 24.0333 6.71667 24.8333 7.25 25.4C7.78333 25.95 8.53333 26.225 9.5 26.225Z" fill="#1A2E6D"/>
</svg>
